<svg width="21" height="25" viewBox="0 0 21 25" fill="none" xmlns="http://www.w3.org/2000/svg">
<path d="M17.4289 13.1201C17.418 11.3281 18.3258 9.97559 20.1633 8.97949C19.1352 7.66602 17.582 6.94336 15.5312 6.80176C13.5898 6.66504 11.468 7.8125 10.6914 7.8125C9.87109 7.8125 7.98984 6.85059 6.51328 6.85059C3.46172 6.89453 0.21875 9.02344 0.21875 13.3545C0.21875 14.6338 0.48125 15.9554 1.00625 17.3193C1.70625 19.1113 4.23281 23.5059 6.86875 23.4326C8.24687 23.4033 9.22031 22.5586 11.0141 22.5586C12.7531 22.5586 13.6555 23.4326 15.1922 23.4326C17.85 23.3984 20.1359 19.4043 20.8031 17.6074C17.2375 16.1084 17.4289 13.2129 17.4289 13.1201ZM14.3336 5.10254C15.8266 3.52051 15.6898 2.08008 15.6461 1.5625C14.3281 1.63086 12.8023 2.36328 11.9328 3.2666C10.9758 4.2334 10.4125 5.42969 10.5328 6.77734C11.9602 6.875 13.2617 6.2207 14.3336 5.10254Z" fill="white"/>
</svg>
