<svg width="21" height="24" viewBox="0 0 21 24" fill="none" xmlns="http://www.w3.org/2000/svg">
<g clip-path="url(#clip0_102_2338)">
<path d="M17.0991 12.5953C17.0887 10.875 17.9533 9.57656 19.7033 8.62031C18.7241 7.35938 17.245 6.66563 15.2918 6.52969C13.4429 6.39844 11.422 7.5 10.6825 7.5C9.9012 7.5 8.10954 6.57656 6.70329 6.57656C3.79704 6.61875 0.708496 8.6625 0.708496 12.8203C0.708496 14.0484 0.958496 15.3172 1.4585 16.6266C2.12516 18.3469 4.53141 22.5656 7.04183 22.4953C8.35433 22.4672 9.28141 21.6563 10.9897 21.6563C12.646 21.6563 13.5054 22.4953 14.9689 22.4953C17.5002 22.4625 19.6772 18.6281 20.3127 16.9031C16.9168 15.4641 17.0991 12.6844 17.0991 12.5953ZM14.1512 4.89844C15.5731 3.37969 15.4429 1.99688 15.4012 1.5C14.146 1.56563 12.6929 2.26875 11.8647 3.13594C10.9533 4.06406 10.4168 5.2125 10.5314 6.50625C11.8908 6.6 13.1304 5.97188 14.1512 4.89844Z" fill="#241152"/>
</g>
<defs>
<clipPath id="clip0_102_2338">
<rect width="20" height="24" fill="white" transform="translate(0.5)"/>
</clipPath>
</defs>
</svg>
