<svg width="21" height="21" viewBox="0 0 21 21" fill="none" xmlns="http://www.w3.org/2000/svg">
<g clip-path="url(#clip0_128_2335)">
<path d="M21 10.5C21 4.70039 16.2996 0 10.5 0C4.70039 0 0 4.70039 0 10.5C0 15.4219 3.39199 19.5562 7.96523 20.6924V13.7074H5.79961V10.5H7.96523V9.11777C7.96523 5.54531 9.58125 3.88828 13.0922 3.88828C13.7566 3.88828 14.9051 4.01953 15.3768 4.15078V7.05469C15.1307 7.03008 14.7 7.01367 14.1627 7.01367C12.44 7.01367 11.7756 7.66582 11.7756 9.35977V10.5H15.2045L14.6139 13.7074H11.7715V20.9221C16.9723 20.2945 21 15.8689 21 10.5Z" fill="white"/>
</g>
<defs>
<clipPath id="clip0_128_2335">
<rect width="21" height="21" fill="white"/>
</clipPath>
</defs>
</svg>
