<svg width="21" height="22" viewBox="0 0 21 22" fill="none" xmlns="http://www.w3.org/2000/svg">
<g clip-path="url(#clip0_86_2968)">
<path d="M21 11C21 5.20039 16.2996 0.5 10.5 0.5C4.70039 0.5 0 5.20039 0 11C0 15.9219 3.39199 20.0562 7.96523 21.1924V14.2074H5.79961V11H7.96523V9.61777C7.96523 6.04531 9.58125 4.38828 13.0922 4.38828C13.7566 4.38828 14.9051 4.51953 15.3768 4.65078V7.55469C15.1307 7.53008 14.7 7.51367 14.1627 7.51367C12.44 7.51367 11.7756 8.16582 11.7756 9.85977V11H15.2045L14.6139 14.2074H11.7715V21.4221C16.9723 20.7945 21 16.3689 21 11Z" fill="#241152"/>
</g>
<defs>
<clipPath id="clip0_86_2968">
<rect width="21" height="21" fill="white" transform="translate(0 0.5)"/>
</clipPath>
</defs>
</svg>
