<svg width="43" height="43" viewBox="0 0 43 43" fill="none" xmlns="http://www.w3.org/2000/svg">
<mask id="mask0_167_2339" style="mask-type:alpha" maskUnits="userSpaceOnUse" x="0" y="0" width="43" height="43">
<rect width="43" height="43" fill="#D9D9D9"/>
</mask>
<g mask="url(#mask0_167_2339)">
<path d="M16.1252 28.6663H19.7085V14.333H16.1252V28.6663ZM23.2918 28.6663H26.8752V14.333H23.2918V28.6663ZM21.5002 39.4163C19.0217 39.4163 16.6925 38.946 14.5127 38.0054C12.3328 37.0648 10.4366 35.7882 8.82412 34.1757C7.21162 32.5632 5.93506 30.667 4.99443 28.4872C4.05381 26.3073 3.5835 23.9781 3.5835 21.4997C3.5835 19.0212 4.05381 16.692 4.99443 14.5122C5.93506 12.3323 7.21162 10.4361 8.82412 8.82363C10.4366 7.21113 12.3328 5.93457 14.5127 4.99395C16.6925 4.05332 19.0217 3.58301 21.5002 3.58301C23.9786 3.58301 26.3078 4.05332 28.4877 4.99395C30.6675 5.93457 32.5637 7.21113 34.1762 8.82363C35.7887 10.4361 37.0653 12.3323 38.0059 14.5122C38.9465 16.692 39.4168 19.0212 39.4168 21.4997C39.4168 23.9781 38.9465 26.3073 38.0059 28.4872C37.0653 30.667 35.7887 32.5632 34.1762 34.1757C32.5637 35.7882 30.6675 37.0648 28.4877 38.0054C26.3078 38.946 23.9786 39.4163 21.5002 39.4163Z" fill="#4D24AF"/>
</g>
</svg>
