<svg width="37" height="37" viewBox="0 0 37 37" fill="none" xmlns="http://www.w3.org/2000/svg">
<path d="M13.1252 25.6663H16.7085V11.333H13.1252V25.6663ZM20.2918 25.6663H23.8752V11.333H20.2918V25.6663ZM18.5002 36.4163C16.0217 36.4163 13.6925 35.946 11.5127 35.0054C9.3328 34.0648 7.43662 32.7882 5.82412 31.1757C4.21162 29.5632 2.93506 27.667 1.99443 25.4872C1.05381 23.3073 0.583496 20.9781 0.583496 18.4997C0.583496 16.0212 1.05381 13.692 1.99443 11.5122C2.93506 9.33231 4.21162 7.43613 5.82412 5.82363C7.43662 4.21113 9.3328 2.93457 11.5127 1.99395C13.6925 1.05332 16.0217 0.583008 18.5002 0.583008C20.9786 0.583008 23.3078 1.05332 25.4877 1.99395C27.6675 2.93457 29.5637 4.21113 31.1762 5.82363C32.7887 7.43613 34.0653 9.33231 35.0059 11.5122C35.9465 13.692 36.4168 16.0212 36.4168 18.4997C36.4168 20.9781 35.9465 23.3073 35.0059 25.4872C34.0653 27.667 32.7887 29.5632 31.1762 31.1757C29.5637 32.7882 27.6675 34.0648 25.4877 35.0054C23.3078 35.946 20.9786 36.4163 18.5002 36.4163Z" fill="#4D24AF"/>
</svg>
