<svg width="37" height="37" viewBox="0 0 37 37" fill="none" xmlns="http://www.w3.org/2000/svg">
<path d="M14.021 26.5627L26.5627 18.5002L14.021 10.4377V26.5627ZM18.5002 36.4168C16.0217 36.4168 13.6925 35.9465 11.5127 35.0059C9.3328 34.0653 7.43662 32.7887 5.82412 31.1762C4.21162 29.5637 2.93506 27.6675 1.99443 25.4877C1.05381 23.3078 0.583496 20.9786 0.583496 18.5002C0.583496 16.0217 1.05381 13.6925 1.99443 11.5127C2.93506 9.3328 4.21162 7.43662 5.82412 5.82412C7.43662 4.21162 9.3328 2.93506 11.5127 1.99443C13.6925 1.05381 16.0217 0.583496 18.5002 0.583496C20.9786 0.583496 23.3078 1.05381 25.4877 1.99443C27.6675 2.93506 29.5637 4.21162 31.1762 5.82412C32.7887 7.43662 34.0653 9.3328 35.0059 11.5127C35.9465 13.6925 36.4168 16.0217 36.4168 18.5002C36.4168 20.9786 35.9465 23.3078 35.0059 25.4877C34.0653 27.6675 32.7887 29.5637 31.1762 31.1762C29.5637 32.7887 27.6675 34.0653 25.4877 35.0059C23.3078 35.9465 20.9786 36.4168 18.5002 36.4168ZM18.5002 32.8335C22.5016 32.8335 25.8908 31.445 28.6679 28.6679C31.445 25.8908 32.8335 22.5016 32.8335 18.5002C32.8335 14.4988 31.445 11.1095 28.6679 8.33246C25.8908 5.55537 22.5016 4.16683 18.5002 4.16683C14.4988 4.16683 11.1095 5.55537 8.33246 8.33246C5.55537 11.1095 4.16683 14.4988 4.16683 18.5002C4.16683 22.5016 5.55537 25.8908 8.33246 28.6679C11.1095 31.445 14.4988 32.8335 18.5002 32.8335Z" fill="#4D24AF"/>
</svg>
